<?xml version="1.0" encoding="utf-8"?>
<!-- Generator: Adobe Illustrator 18.0.0, SVG Export Plug-In . SVG Version: 6.00 Build 0)  -->
<!DOCTYPE svg PUBLIC "-//W3C//DTD SVG 1.1//EN" "http://www.w3.org/Graphics/SVG/1.1/DTD/svg11.dtd">
<svg version="1.1" id="Layer_1" xmlns="http://www.w3.org/2000/svg" xmlns:xlink="http://www.w3.org/1999/xlink" x="0px" y="0px"
	 viewBox="0 0 250 250" enable-background="new 0 0 250 250" xml:space="preserve">
<path fill="#4AA8D3" d="M91.9,138.7c-5.8,0-11.6,2.9-17.4,8.6c-8.3,8.3-11.5,30.8-12.5,40.1l-0.3,3l3-0.3c9.3-1,31.8-4.2,40.1-12.5
	c7.7-7.7,14.2-19.5,1.7-32C102,141.1,97.1,138.7,91.9,138.7z M101.4,174.2C94.8,180.8,75,184,67.2,185c1-7.7,4.2-27.6,10.8-34.2
	c4.8-4.8,9.5-7.2,14-7.2h0c3.8,0,7.6,1.8,11.2,5.5C111,156.8,110.4,165.3,101.4,174.2z M186,65.6c-2-2-3.5-2.3-4.5-2.3
	c-1.2,0-2.5,0.5-3.9,1.5l-0.2,0.1c-7.4,5.2-14.8,10.4-22.2,15.7c-20.6,14.6-39.4,31.1-55.8,48.8c-0.5,0.6-1.1,1.2-1.7,2l-1.7,2.1
	l2.4,1.4c9.5,5.8,11.4,7.6,17.8,17.8l1.4,2.2l2.1-1.6c0.4-0.3,0.7-0.6,1.1-0.9c13-11.4,24.6-23.5,34.3-36
	c7.3-9.4,14.4-19.2,21.3-28.7l0.9-1.2c2.9-4.1,6.1-8.4,9.3-12.8C188.8,70.7,188.6,68.3,186,65.6z M183.3,69.9c0,0.1-0.1,0.3-0.6,1.1
	c-3.1,4.3-6.2,8.6-9.3,12.8l-0.7,1c-6.9,9.5-14,19.3-21.3,28.8c-9.3,11.9-20.2,23.5-32.6,34.4c-5.2-8.1-7.9-10.8-15.4-15.5
	c16.1-17.4,34.5-33.5,54.7-47.8c7.4-5.3,14.9-10.5,22.4-15.8c0.7-0.5,1-0.6,1.1-0.6c0.1,0.1,0.5,0.3,1.1,0.9
	C183.1,69.6,183.3,69.8,183.3,69.9z M100.9,226.6c-0.2,0-0.4,0-0.6-0.1c-54.9-13.6-88.4-69.3-74.8-124.2c6.6-26.6,23.1-49,46.6-63.1
	c23.5-14.1,51-18.3,77.6-11.7c54.9,13.6,88.4,69.3,74.8,124.2c-8.9,36-36.8,64.5-72.6,74.3c-1.3,0.4-2.7-0.4-3.1-1.8
	c-0.4-1.3,0.4-2.7,1.8-3.1c34.1-9.3,60.6-36.4,69.1-70.6c12.9-52.2-19-105.2-71.2-118.1C123.2,26.1,97,30,74.7,43.5
	c-22.3,13.4-38,34.8-44.3,60c-12.9,52.2,19,105.2,71.2,118.1c1.3,0.3,2.2,1.7,1.8,3C103.1,225.8,102,226.6,100.9,226.6z M129,225.7
	c0,2.2-1.8,4-4,4s-4-1.8-4-4s1.8-4,4-4S129,223.5,129,225.7z"/>
<image overflow="visible" width="256" height="256" xlink:href="../../electricity-icon (1) como objeto inteligente-1.png"  transform="matrix(0.5272 0 0 0.5194 52 60.6196)">
</image>
</svg>
